<svg width="120" height="122" viewBox="0 0 120 122" fill="none" xmlns="http://www.w3.org/2000/svg">
<path d="M22.1325 103.704L13.7063 7.625H106.294L97.8563 103.689L59.9438 114.375L22.1325 103.704Z" fill="#E44F26"/>
<path d="M60 106.209L90.6375 97.5734L97.845 15.4827H60V106.209Z" fill="#F1662A"/>
<path d="M60 51.1142H44.6625L43.605 39.0476H60V27.2632H30.9375L31.215 30.4276L34.0613 62.8986H60V51.1142ZM60 81.7171L59.9475 81.7324L47.04 78.1906L46.215 68.7928H34.5787L36.2025 87.291L59.9475 93.9934L60 93.9781V81.7171Z" fill="#EBEBEB"/>
<path d="M59.9587 51.1142V62.8986H74.2312L72.8887 78.1829L59.9587 81.7286V93.9896L83.7225 87.291L83.895 85.3009L86.6175 54.2786L86.9025 51.1142H59.9587ZM59.9587 27.2632V39.0476H87.9562L88.1887 36.4017L88.7175 30.4276L88.995 27.2632H59.9587Z" fill="white"/>
</svg>
