<svg width="112" height="114" viewBox="0 0 112 114" fill="none" xmlns="http://www.w3.org/2000/svg">
<path d="M101.535 17.9194L81.3541 8.02992C80.2144 7.4706 78.932 7.28602 77.6847 7.50178C76.4373 7.71753 75.2868 8.32293 74.3926 9.23405L8.3301 70.5375C7.52857 71.2778 7.04878 72.3119 6.99627 73.4122C6.94376 74.5126 7.32283 75.5891 8.0501 76.405C8.1376 76.5012 8.2251 76.5938 8.3196 76.6793L13.7131 81.6668C14.4179 82.3197 15.325 82.7007 16.2771 82.7436C17.2291 82.7866 18.1658 82.4888 18.9246 81.9019L98.4971 20.4844C99.0981 20.0202 99.8145 19.736 100.566 19.6637C101.317 19.5914 102.073 19.734 102.749 20.0753C103.425 20.4167 103.993 20.9433 104.391 21.5959C104.789 22.2485 105 23.0011 105 23.769V23.5304C105 22.3579 104.675 21.2094 104.062 20.2168C103.449 19.2241 102.573 18.4278 101.535 17.9194Z" fill="#0065A9"/>
<path d="M101.535 96.0805L81.3541 105.974C80.2141 106.531 78.9321 106.715 77.6851 106.499C76.4381 106.284 75.2876 105.679 74.3926 104.769L8.3301 43.4624C7.52857 42.7221 7.04878 41.6881 6.99627 40.5877C6.94376 39.4874 7.32283 38.4108 8.0501 37.595C8.1376 37.4988 8.2251 37.4062 8.3196 37.3207L13.7131 32.3332C14.4186 31.6775 15.3278 31.2948 16.2822 31.2519C17.2366 31.2089 18.1755 31.5084 18.9351 32.098L98.4971 93.5155C99.0981 93.9798 99.8145 94.264 100.566 94.3363C101.317 94.4085 102.073 94.266 102.749 93.9246C103.425 93.5832 103.993 93.0566 104.391 92.4041C104.789 91.7515 105 90.9989 105 90.2309V90.4874C104.996 91.6567 104.669 92.8013 104.057 93.7904C103.444 94.7795 102.57 95.5731 101.535 96.0805Z" fill="#007ACC"/>
<path d="M81.3539 105.974C80.2139 106.531 78.9319 106.715 77.6849 106.499C76.4379 106.284 75.2874 105.679 74.3924 104.77C74.895 105.274 75.5329 105.617 76.226 105.755C76.9192 105.892 77.6368 105.818 78.2889 105.543C78.941 105.267 79.4987 104.801 79.892 104.204C80.2853 103.607 80.4968 102.906 80.4999 102.187V11.8132C80.5005 11.0911 80.2905 10.385 79.8965 9.78441C79.5025 9.18384 78.9423 8.7158 78.2867 8.43959C77.6312 8.16338 76.9098 8.09143 76.2141 8.23285C75.5183 8.37427 74.8795 8.72269 74.3784 9.23399C75.2728 8.3232 76.423 7.71777 77.6702 7.50141C78.9173 7.28506 80.1997 7.46848 81.3399 8.0263L101.517 17.9015C102.559 18.4074 103.438 19.2026 104.054 20.1954C104.67 21.1882 104.998 22.3382 105 23.5125V90.4875C105 91.6609 104.675 92.8105 104.061 93.8038C103.447 94.7972 102.571 95.5938 101.531 96.102L81.3539 105.974Z" fill="#1F9CF0"/>
</svg>
