<svg width="120" height="121" viewBox="0 0 120 121" fill="none" xmlns="http://www.w3.org/2000/svg">
<path d="M22.1325 102.854L13.71 7.5625H106.29L97.8562 102.839L59.9437 113.438L22.1325 102.854Z" fill="#1572B6"/>
<path d="M60 105.338L90.6375 96.7736L97.845 15.3557H60V105.338Z" fill="#33A9DC"/>
<path d="M60 49.8784H75.3375L76.395 37.9107H60V26.2229H89.0625L88.785 29.3576L85.9387 61.5662H60V49.8784Z" fill="white"/>
<path d="M60.0711 80.2307L60.0186 80.2458L47.1112 76.7292L46.2862 67.4084H34.6499L36.2737 85.7589L60.0149 92.4063L60.0711 92.3912V80.2307Z" fill="#EBEBEB"/>
<path d="M74.3513 61.071L72.9563 76.7216L60.03 80.2382V92.3987L83.79 85.7588L83.9663 83.785L85.98 61.071H74.3513Z" fill="white"/>
<path d="M60.0411 26.2229V37.9107H32.0436L31.8111 35.2828L31.2824 29.3576L31.0049 26.2229H60.0411ZM59.9999 49.8784V61.5662H47.2536L47.0211 58.9383L46.4961 53.0131L46.2186 49.8784H59.9999Z" fill="#EBEBEB"/>
</svg>
