<svg width="120" height="122" viewBox="0 0 120 122" fill="none" xmlns="http://www.w3.org/2000/svg">
<path d="M7.5 7.625H112.5V114.375H7.5V7.625Z" fill="#F5DE19"/>
<path d="M78.0338 91.0234C78.9284 92.8709 80.3183 94.4238 82.0434 95.5031C83.7684 96.5823 85.7584 97.144 87.7838 97.1234C91.8713 97.1234 94.485 95.0456 94.485 92.1671C94.485 88.7359 91.8 87.5083 87.3 85.5067L84.8325 84.4316C77.7075 81.3473 72.9825 77.4852 72.9825 69.3188C72.9825 61.7968 78.6075 56.0666 87.4313 56.0666C90.2877 55.8569 93.1416 56.5068 95.637 57.9353C98.1324 59.3639 100.159 61.5077 101.464 64.0995L93.75 69.113C93.2476 67.8279 92.3728 66.7284 91.2416 65.9603C90.1105 65.1923 88.7764 64.792 87.4163 64.8125C86.8229 64.7521 86.2236 64.818 85.6567 65.0061C85.0897 65.1942 84.5675 65.5002 84.1234 65.9048C83.6792 66.3094 83.3228 66.8036 83.0769 67.356C82.831 67.9083 82.7009 68.5067 82.695 69.113C82.695 72.121 84.5288 73.341 88.7625 75.213L91.23 76.2881C99.615 79.9443 104.355 83.6691 104.355 92.0452C104.355 101.077 97.3763 106.026 88.005 106.026C84.3537 106.262 80.713 105.419 77.5223 103.599C74.3317 101.778 71.7274 99.058 70.0238 95.7662L78.0338 91.0234ZM43.1775 91.8927C44.7263 94.6872 46.1363 97.051 49.5263 97.051C52.7663 97.051 54.8138 95.7623 54.8138 90.7489V56.6385H64.68V90.8823C64.68 101.268 58.68 105.995 49.9463 105.995C46.8591 106.167 43.7931 105.384 41.1513 103.751C38.5096 102.118 36.4157 99.7107 35.145 96.8451L43.1775 91.8927Z" fill="black"/>
</svg>
